# xmcd
#
# Track frame offsets: 
#        150
#        10013
#        20875
#        29323
#        37158
#        48355
#        57350
#        69176
#        79588
#        92067
#        100067
#        112803
#        122090
#        137985
#        153973
#
# Disc length: 2202 seconds
#
# Revision: 0
# Processed by: cddbd v1.5.2PL0 Copyright (c) Steve Scherf et al.
# Submitted via: ExactAudioCopy v0.99pb5
#
DISCID=bb08980f
DTITLE=Johnny Cash - Rock Island Line
DYEAR=2009
DGENRE=Country
TTITLE0=Rock Island Line
TTITLE1=(I Heard That) Lonesome Whistle
TTITLE2=Country Boy
TTITLE3=If The Good Lord's Willing
TTITLE4=Cry Cry Cry
TTITLE5=Remember Me (I'm The One Who Loves You)
TTITLE6=So Doggone Lonesome
TTITLE7=I Was There When It Happened
TTITLE8=I Walk The Line
TTITLE9=Wreck Of The Old '97
TTITLE10=Folsom Prison Blues
TTITLE11=Oh What A Dream
TTITLE12=A Boy Named Sue (live)
TTITLE13=City Of New Orleans (live)
TTITLE14=These Hands (live)
EXTD=
EXTT0=
EXTT1=
EXTT2=
EXTT3=
EXTT4=
EXTT5=
EXTT6=
EXTT7=
EXTT8=
EXTT9=
EXTT10=
EXTT11=
EXTT12=
EXTT13=
EXTT14=
PLAYORDER=
